<?xml version="1.0" encoding="UTF-8" standalone="no"?>
<!-- Generator: Adobe Illustrator 27.2.0, SVG Export Plug-In . SVG Version: 6.00 Build 0)  -->

<svg
   version="1.1"
   id="Layer_1"
   x="0px"
   y="0px"
   viewBox="0 0 286.724 345.72399"
   xml:space="preserve"
   sodipodi:docname="phind.svg"
   width="286.724"
   height="345.724"
   xmlns:inkscape="http://www.inkscape.org/namespaces/inkscape"
   xmlns:sodipodi="http://sodipodi.sourceforge.net/DTD/sodipodi-0.dtd"
   xmlns="http://www.w3.org/2000/svg"
   xmlns:svg="http://www.w3.org/2000/svg"><defs
   id="defs153" /><sodipodi:namedview
   id="namedview151"
   pagecolor="#ffffff"
   bordercolor="#000000"
   borderopacity="0.25"
   inkscape:showpageshadow="2"
   inkscape:pageopacity="0.0"
   inkscape:pagecheckerboard="0"
   inkscape:deskcolor="#d1d1d1"
   showgrid="false" />

<path
   d="M 24.760163,65.470325 V 345.77032 h 52.299989 v -113.7 c 0,0 0.100006,0 0.100006,0.1 v -5.6 c 0,0 0,0 0,0 v -1.8 c 17.899989,17.3 40.399932,29.3 65.299952,33.4 6.00006,0.9 12.09996,1.4 18.30004,1.4 v 0 c 61.99978,-1.8 115.70001,-48 124.70004,-111.4 4.89993,-34.3 -3.90001,-68.499995 -24.70008,-96.19999 -20.79995,-27.7 -51.19997,-45.7000005 -85.39991,-50.6000005 -34.30003,-4.9 -68.49996,3.9 -96.200049,24.7000005 -3.399994,2.5 -6.599996,5.2 -9.699998,8 L 32.86016,4.6703295 0.06016274,45.47033 Z M 157.76009,47.67033 c 35.90006,0 66.40004,23.199995 77.29992,55.49999 2.8001,8.2 4.30016,17 4.30016,26.2 0,37.6 -25.50003,69.3 -60.20003,78.6 -6.79995,1.9 -14,2.8 -21.40005,2.8 -13.99994,0 -27.09986,-3.5 -38.59991,-9.7 -10.40009,-5.5 -19.50006,-13.2 -26.700062,-22.9 -8.299963,-11 -13.499965,-23.7 -15.29996,-37 v 0 c -0.600008,-3.9 -0.900014,-7.8 -0.900014,-11.9 0,-45.099995 36.500006,-81.59999 81.499946,-81.59999 z"
   id="path144"
   style="stroke-width:0.999955" /></svg>
